<?xml version="1.0" encoding="utf-8"?>
<!-- Generator: Adobe Illustrator 22.1.0, SVG Export Plug-In . SVG Version: 6.00 Build 0)  -->
<svg version="1.1" id="Laag_1" xmlns="http://www.w3.org/2000/svg" xmlns:xlink="http://www.w3.org/1999/xlink" x="0px" y="0px"
	 width="39.7px" height="368.5px" viewBox="0 0 39.7 368.5" style="enable-background:new 0 0 39.7 368.5;" xml:space="preserve">
<style type="text/css">
	.st0{fill:#F3A600;}
</style>
<g>
	<path class="st0" d="M2.3,367.1V362l28.5-9.6v-0.1l-28.5-10v-4.8l35.1,12.9v4.1L2.3,367.1z"/>
	<path class="st0" d="M2.3,330.3v-4.4h35.1v4.4H2.3z"/>
	<path class="st0" d="M2.3,314.3v-21.1h4.5v16.6h10.5v-15.5h4.5v15.5h11.2v-17.5h4.5v21.9H2.3z"/>
	<path class="st0" d="M2.3,287v-4.6l28-7.2v-0.1l-28-7.7v-5.1l28-7.7v-0.1l-28-7.2v-4.6l35.1,9.5v4.7l-28.6,7.9v0.1l28.6,7.8v4.7
		L2.3,287z"/>
	<path class="st0" d="M2.3,219.3v-11.5c0-2.1,0.3-3.8,0.9-5.2c0.6-1.4,1.4-2.4,2.3-3.2c0.9-0.8,2-1.3,3.2-1.6
		c1.2-0.3,2.3-0.5,3.4-0.5s2.2,0.2,3.4,0.5c1.2,0.3,2.2,0.9,3.2,1.6c0.9,0.8,1.7,1.9,2.3,3.2c0.6,1.4,0.9,3.1,0.9,5.2v7.1h15.5v4.4
		H2.3z M17.8,214.8V209c0-0.9-0.1-1.7-0.2-2.6c-0.1-0.8-0.4-1.6-0.8-2.3c-0.4-0.7-1-1.2-1.7-1.6c-0.7-0.4-1.7-0.6-2.9-0.6
		s-2.2,0.2-2.9,0.6c-0.7,0.4-1.3,0.9-1.7,1.6c-0.4,0.7-0.7,1.4-0.8,2.3c-0.1,0.8-0.2,1.7-0.2,2.6v5.8H17.8z"/>
	<path class="st0" d="M2.3,188.7v-11.5c0-2.1,0.3-3.8,0.9-5.2c0.6-1.4,1.4-2.4,2.3-3.2c0.9-0.8,2-1.3,3.2-1.6
		c1.2-0.3,2.3-0.5,3.4-0.5c1.1,0,2.2,0.2,3.2,0.6c1,0.4,2,0.9,2.8,1.6c0.8,0.7,1.6,1.5,2.1,2.5c0.6,1,0.9,2.1,1.1,3.3l16-9.3v5.5
		l-15.5,8.3v4.9h15.5v4.4H2.3z M17.8,184.3v-5.8c0-0.9-0.1-1.7-0.2-2.6c-0.1-0.8-0.4-1.6-0.8-2.3c-0.4-0.7-1-1.2-1.7-1.6
		c-0.7-0.4-1.7-0.6-2.9-0.6s-2.2,0.2-2.9,0.6c-0.7,0.4-1.3,0.9-1.7,1.6c-0.4,0.7-0.7,1.4-0.8,2.3c-0.1,0.8-0.2,1.7-0.2,2.6v5.8H17.8
		z"/>
	<path class="st0" d="M38.3,142.3c0,2.5-0.5,4.8-1.4,6.9c-0.9,2.1-2.2,3.9-3.9,5.4c-1.7,1.5-3.6,2.7-5.8,3.5
		c-2.2,0.8-4.7,1.3-7.3,1.3c-2.6,0-5-0.4-7.3-1.3c-2.2-0.8-4.2-2-5.8-3.5c-1.7-1.5-2.9-3.3-3.9-5.4c-0.9-2.1-1.4-4.4-1.4-6.9
		c0-2.5,0.5-4.8,1.4-6.9c0.9-2.1,2.2-3.9,3.9-5.4c1.7-1.5,3.6-2.7,5.8-3.5c2.2-0.8,4.7-1.3,7.3-1.3c2.6,0,5,0.4,7.3,1.3
		c2.2,0.8,4.2,2,5.8,3.5c1.7,1.5,2.9,3.3,3.9,5.4C37.8,137.5,38.3,139.8,38.3,142.3z M33.8,142.3c0-1.9-0.4-3.6-1.1-5.1
		c-0.7-1.5-1.7-2.8-3-3.9c-1.3-1.1-2.7-1.9-4.4-2.5c-1.7-0.6-3.5-0.9-5.4-0.9c-1.9,0-3.7,0.3-5.4,0.9c-1.7,0.6-3.2,1.4-4.4,2.5
		c-1.3,1.1-2.3,2.4-3,3.9c-0.7,1.5-1.1,3.2-1.1,5.1c0,1.9,0.4,3.6,1.1,5.1c0.7,1.5,1.7,2.8,3,3.9c1.3,1.1,2.7,1.9,4.4,2.5
		c1.7,0.6,3.5,0.9,5.4,0.9c1.9,0,3.7-0.3,5.4-0.9c1.7-0.6,3.2-1.4,4.4-2.5c1.3-1.1,2.3-2.4,3-3.9C33.4,145.9,33.8,144.2,33.8,142.3z
		"/>
	<path class="st0" d="M2.3,105.5v-4.4h25.1c2.2,0,4,0.3,5.4,1c1.4,0.6,2.5,1.5,3.3,2.4c0.8,1,1.4,2,1.7,3.1c0.3,1.1,0.5,2.1,0.5,3
		c0,2.3-0.6,4.3-1.9,5.8c-1.3,1.6-3.2,2.6-5.8,3l-1-4.3c1.3-0.2,2.4-0.8,3.1-1.5c0.8-0.8,1.1-1.8,1.1-3c0-1.1-0.2-2-0.7-2.7
		c-0.5-0.7-1.1-1.2-1.8-1.5c-0.7-0.4-1.6-0.6-2.6-0.7c-1-0.1-1.9-0.2-2.9-0.2H2.3z"/>
	<path class="st0" d="M2.3,90.3V69.2h4.5v16.6h10.5V70.3h4.5v15.5h11.2V68.4h4.5v21.9H2.3z"/>
	<path class="st0" d="M9.9,36.1c-1.3,0.9-2.3,2.1-3,3.5c-0.7,1.4-1,2.9-1,4.4c0,1.8,0.4,3.5,1.1,5c0.7,1.5,1.8,2.8,3,3.8
		c1.3,1.1,2.8,1.9,4.5,2.5c1.7,0.6,3.6,0.9,5.6,0.9c1.9,0,3.6-0.3,5.3-0.8c1.7-0.6,3.1-1.4,4.4-2.4c1.3-1,2.2-2.3,3-3.8
		c0.7-1.5,1.1-3.2,1.1-5.1c0-1.9-0.4-3.5-1.2-4.9c-0.8-1.4-2-2.6-3.5-3.6l3-3.7c0.4,0.2,0.9,0.7,1.6,1.3c0.7,0.6,1.4,1.4,2,2.4
		c0.7,1,1.3,2.2,1.8,3.7c0.5,1.4,0.8,3.1,0.8,5c0,2.6-0.5,4.9-1.6,7c-1.1,2.1-2.4,3.8-4.2,5.3c-1.7,1.5-3.7,2.6-5.8,3.3
		c-2.2,0.8-4.4,1.2-6.6,1.2c-2.7,0-5.2-0.4-7.5-1.2c-2.3-0.8-4.3-2-5.9-3.5c-1.7-1.5-3-3.3-3.9-5.4c-0.9-2.1-1.4-4.4-1.4-6.9
		c0-2.2,0.4-4.3,1.3-6.3c0.9-2.1,2.3-3.8,4.1-5.1L9.9,36.1z"/>
	<path class="st0" d="M6.8,16.4v10.5H2.3V1.4h4.5v10.5h30.6v4.4H6.8z"/>
</g>
</svg>
