<?xml version="1.0" encoding="utf-8"?>
<!-- Generator: Adobe Illustrator 22.1.0, SVG Export Plug-In . SVG Version: 6.00 Build 0)  -->
<svg version="1.1" id="aboutme_text" class="aboutme_text" xmlns="http://www.w3.org/2000/svg" xmlns:xlink="http://www.w3.org/1999/xlink" x="0px" y="0px"
	 width="39.7px" height="212.6px" viewBox="0 0 39.7 212.6" style="enable-background:new 0 0 39.7 212.6;" xml:space="preserve">
<style type="text/css">
	#aboutme_text .st0{fill:#5F6468;}
</style>
<g>
	<path class="st0" d="M4.5,195.9v-4l32.3-13.8v5.1l-8,3.2v15.4l8,3.2v5.1L4.5,195.9z M25,188.1l-14.8,6v0.1l14.8,6.1V188.1z"/>
	<path class="st0" d="M2.3,174.5v-4.1h16v-0.1c-1.1-0.7-2-1.8-2.7-3.1c-0.7-1.4-1-2.8-1-4.4c0-1.7,0.3-3.2,0.9-4.5
		c0.6-1.4,1.4-2.5,2.4-3.5c1-1,2.2-1.7,3.6-2.2c1.4-0.5,2.9-0.8,4.5-0.8s3.1,0.3,4.5,0.8c1.4,0.5,2.6,1.3,3.6,2.2
		c1,1,1.8,2.1,2.4,3.5c0.6,1.4,0.9,2.9,0.9,4.5c0,1.5-0.3,2.9-1,4.3c-0.6,1.4-1.5,2.5-2.7,3.3v0.1h3.1v4.1H2.3z M33.5,163.3
		c0-1.1-0.2-2.1-0.6-3c-0.4-0.9-0.9-1.6-1.6-2.2c-0.7-0.6-1.4-1.1-2.4-1.4c-0.9-0.3-1.9-0.5-3-0.5c-1.1,0-2.1,0.2-3,0.5
		c-0.9,0.3-1.7,0.8-2.4,1.4c-0.7,0.6-1.2,1.4-1.6,2.2c-0.4,0.9-0.6,1.9-0.6,3s0.2,2.1,0.6,3c0.4,0.9,0.9,1.6,1.6,2.2
		c0.7,0.6,1.4,1.1,2.4,1.4c0.9,0.3,1.9,0.5,3,0.5c1.1,0,2.1-0.2,3-0.5c0.9-0.3,1.7-0.8,2.4-1.4c0.7-0.6,1.2-1.4,1.6-2.2
		C33.3,165.4,33.5,164.4,33.5,163.3z"/>
	<path class="st0" d="M26,147.2c-1.6,0-3.1-0.3-4.4-0.9c-1.4-0.6-2.6-1.4-3.6-2.4c-1-1-1.8-2.3-2.4-3.7c-0.6-1.4-0.9-2.9-0.9-4.5
		c0-1.6,0.3-3.1,0.9-4.5c0.6-1.4,1.4-2.6,2.4-3.7c1-1,2.2-1.8,3.6-2.4c1.4-0.6,2.8-0.9,4.4-0.9c1.6,0,3.1,0.3,4.5,0.9
		s2.6,1.4,3.6,2.4c1,1,1.8,2.3,2.4,3.7c0.6,1.4,0.9,2.9,0.9,4.5c0,1.6-0.3,3.1-0.9,4.5c-0.6,1.4-1.4,2.6-2.4,3.7
		c-1,1-2.2,1.8-3.6,2.4S27.6,147.2,26,147.2z M26,142.8c1.1,0,2.1-0.2,3-0.5c0.9-0.3,1.7-0.8,2.4-1.4c0.7-0.6,1.2-1.4,1.6-2.2
		c0.4-0.9,0.6-1.9,0.6-3c0-1.1-0.2-2.1-0.6-3c-0.4-0.9-0.9-1.6-1.6-2.2c-0.7-0.6-1.4-1.1-2.4-1.4c-0.9-0.3-1.9-0.5-3-0.5
		c-1.1,0-2.1,0.2-3,0.5c-0.9,0.3-1.7,0.8-2.4,1.4c-0.7,0.6-1.2,1.4-1.6,2.2c-0.4,0.9-0.6,1.9-0.6,3c0,1.1,0.2,2.1,0.6,3
		c0.4,0.9,0.9,1.6,1.6,2.2c0.7,0.6,1.4,1.1,2.4,1.4C23.9,142.7,24.9,142.8,26,142.8z"/>
	<path class="st0" d="M36.8,99.4v4.1h-3.3v0.1c1.2,0.5,2.1,1.4,2.8,2.7s1.1,2.8,1.1,4.4c0,1.1-0.2,2.1-0.5,3
		c-0.3,0.9-0.8,1.8-1.5,2.5c-0.7,0.7-1.5,1.3-2.6,1.7c-1.1,0.4-2.3,0.6-3.7,0.6H15.2v-4.1H28c1,0,1.9-0.1,2.6-0.4
		c0.7-0.3,1.3-0.6,1.7-1.1c0.4-0.5,0.8-1,1-1.6c0.2-0.6,0.3-1.2,0.3-1.8c0-0.9-0.1-1.6-0.4-2.4c-0.3-0.7-0.7-1.4-1.3-1.9
		c-0.6-0.5-1.3-1-2.3-1.3c-0.9-0.3-2-0.5-3.2-0.5H15.2v-4.1H36.8z"/>
	<path class="st0" d="M18.7,81.1V87h9.8c0.6,0,1.2,0,1.8,0c0.6,0,1.1-0.1,1.6-0.3c0.5-0.2,0.9-0.5,1.1-0.9c0.3-0.4,0.4-1,0.4-1.8
		c0-0.5,0-1-0.1-1.5c-0.1-0.5-0.3-1-0.5-1.4h3.7c0.3,0.5,0.5,1.1,0.6,1.9c0.1,0.8,0.2,1.4,0.2,1.8c0,1.6-0.2,2.8-0.7,3.7
		s-1,1.5-1.7,1.9c-0.7,0.4-1.5,0.7-2.4,0.7c-0.9,0.1-1.7,0.1-2.6,0.1H18.7v4.7h-3.6v-4.7H9.1V87h6.1v-5.9H18.7z"/>
	<path class="st0" d="M15.2,62.2v-3.8h3.4v-0.1c-0.3-0.1-0.7-0.3-1.1-0.7s-0.9-0.9-1.3-1.5c-0.4-0.6-0.8-1.3-1-2.1
		c-0.3-0.8-0.4-1.7-0.4-2.7c0-1.6,0.3-3,1-4.1s1.7-2,3-2.7c-1.3-0.7-2.3-1.7-3-3s-1-2.6-1-3.9c0-1.7,0.3-3,0.8-4.1
		c0.5-1.1,1.3-1.9,2.2-2.5c0.9-0.6,1.9-1,3.1-1.3c1.1-0.2,2.3-0.3,3.5-0.3h12.6v4.1H24.8c-0.8,0-1.6,0.1-2.4,0.2
		c-0.8,0.1-1.4,0.3-2,0.7c-0.6,0.3-1,0.8-1.4,1.4c-0.3,0.6-0.5,1.4-0.5,2.4c0,2,0.6,3.4,1.8,4.2c1.2,0.9,2.8,1.3,4.7,1.3h11.8V48
		H25.5c-1,0-2,0.1-2.8,0.2c-0.9,0.1-1.6,0.3-2.2,0.6c-0.6,0.3-1.1,0.8-1.5,1.4c-0.3,0.6-0.5,1.4-0.5,2.4c0,0.7,0.1,1.4,0.4,2.1
		c0.3,0.7,0.7,1.3,1.3,1.8s1.3,0.9,2.2,1.2c0.9,0.3,2,0.5,3.2,0.5h11.2v4.1H15.2z"/>
	<path class="st0" d="M27.5,19.8c0.9,0,1.8-0.2,2.6-0.6c0.8-0.4,1.4-1,2-1.6c0.5-0.7,1-1.4,1.3-2.3c0.3-0.9,0.5-1.8,0.5-2.7
		c0-1.3-0.3-2.4-0.9-3.3s-1.4-1.8-2.4-2.6l2.4-3.1c3,2.3,4.4,5.5,4.4,9.6c0,1.7-0.3,3.2-0.9,4.6c-0.6,1.4-1.4,2.6-2.4,3.5
		c-1,1-2.2,1.7-3.6,2.2s-2.9,0.8-4.5,0.8s-3.1-0.3-4.5-0.8c-1.4-0.6-2.6-1.3-3.6-2.3c-1-1-1.8-2.2-2.4-3.5c-0.6-1.4-0.9-2.9-0.9-4.5
		c0-1.9,0.3-3.5,1-4.9c0.7-1.3,1.5-2.4,2.6-3.3C19.3,4,20.6,3.4,21.9,3c1.4-0.4,2.7-0.6,4.1-0.6h1.5V19.8z M24.2,6.8
		c-0.9,0-1.8,0.2-2.5,0.4c-0.8,0.3-1.4,0.6-2,1.2c-0.6,0.5-1,1.2-1.3,1.9c-0.3,0.8-0.5,1.7-0.5,2.7c0,1,0.2,1.9,0.6,2.8
		c0.4,0.8,0.9,1.5,1.5,2.1c0.6,0.6,1.3,1,2,1.3c0.7,0.3,1.5,0.5,2.2,0.5V6.8z"/>
</g>
</svg>
