<?xml version="1.0" encoding="utf-8"?>
<!-- Generator: Adobe Illustrator 22.1.0, SVG Export Plug-In . SVG Version: 6.00 Build 0)  -->
<svg version="1.1" id="footer_logo" xmlns="http://www.w3.org/2000/svg" xmlns:xlink="http://www.w3.org/1999/xlink" x="0px" y="0px"
	 width="104px" height="9px" viewBox="0 0 104 9" style="enable-background:new 0 0 104 9;" xml:space="preserve">
<style type="text/css">
	#footer_logo .st0{fill:#FFFFFF;}
</style>
<g>
	<path class="st0" d="M6.5,5.6C6.2,6.3,5.4,6.7,4.6,6.7c-1.2,0-2.2-1-2.2-2.2s1-2.2,2.2-2.2c0.8,0,1.5,0.4,1.9,1.1l1.7-1
		C7.5,1.2,6.2,0.4,4.6,0.4c-2.3,0-4.2,1.9-4.2,4.2s1.9,4.2,4.2,4.2c1.5,0,2.9-0.8,3.6-2.1L6.5,5.6z"/>
	<polygon class="st0" points="14.5,6.6 14.5,6.6 12.2,6.6 12.2,0.4 10.2,0.4 10.2,8.6 13.4,8.6 	"/>
	<polygon class="st0" points="49.6,2.4 49.6,0.4 43.6,0.4 43.6,8.6 49.6,8.6 49.6,6.6 45.5,6.6 45.5,5.5 48.5,5.5 48.5,3.5 
		45.5,3.5 45.5,2.4 	"/>
	<path class="st0" d="M30.9,8.6h2.3l-1.4-2.5c0.8-0.6,1.4-1.5,1.4-2.6c0-1.7-1.4-3.1-3.1-3.1h-3v8.1h2v-2h0.7L30.9,8.6z M29,2.4h1
		c0.6,0,1.1,0.5,1.1,1.1S30.6,4.6,30,4.6h-1V2.4z"/>
	<polygon class="st0" points="41.9,0.4 39.6,0.4 37.2,3.6 37.2,0.4 35.3,0.4 35.3,8.6 37.2,8.6 37.2,5.5 39.6,8.6 41.9,8.6 39,4.5 	
		"/>
	<polygon class="st0" points="19,6.6 19,6.6 20.4,4.1 21.8,6.6 21.8,6.6 23,8.6 25.3,8.6 20.4,0.2 15.5,8.6 17.8,8.6 	"/>
	<g>
		<polygon class="st0" points="103.5,6.6 101.6,6.6 99.5,6.6 99.5,0.5 97.5,0.5 97.5,8.6 102.4,8.6 		"/>
		<polygon class="st0" points="95.6,2.4 95.6,0.5 89.6,0.5 89.6,8.6 95.6,8.6 95.6,6.6 91.6,6.6 91.6,5.5 94.5,5.5 94.5,3.5 
			91.6,3.5 91.6,2.4 		"/>
		<polygon class="st0" points="61.6,0.4 60.4,2.4 60.5,2.4 59,4.9 57.6,2.4 57.6,2.4 56.5,0.4 54.2,0.4 59,8.8 63.9,0.4 		"/>
		<path class="st0" d="M84,0.5h-3v8.1h2v0h1c2.2,0,4.1-1.8,4.1-4.1S86.2,0.5,84,0.5z M84,6.6h-1V2.4h1c1.2,0,2.1,0.9,2.1,2.1
			S85.1,6.6,84,6.6z"/>
		<polygon class="st0" points="71,2.4 71,0.5 65,0.5 65,8.6 71,8.6 71,6.6 66.9,6.6 66.9,5.5 69.9,5.5 69.9,3.5 66.9,3.5 66.9,2.4 
					"/>
		<path class="st0" d="M76.8,8.6H79l-1.4-2.5C78.5,5.6,79,4.6,79,3.5c0-1.7-1.4-3.1-3.1-3.1h-3v8.1h2v-2h0.7L76.8,8.6z M75,2.4h1
			c0.6,0,1.1,0.5,1.1,1.1s-0.5,1.1-1.1,1.1h-1V2.4z"/>
	</g>
</g>
</svg>
