<?xml version="1.0" encoding="utf-8"?>
<!-- Generator: Adobe Illustrator 22.1.0, SVG Export Plug-In . SVG Version: 6.00 Build 0)  -->
<svg version="1.1" id="recentwork_text" class="recentwork_text" xmlns="http://www.w3.org/2000/svg" xmlns:xlink="http://www.w3.org/1999/xlink" x="0px" y="0px"
	 width="39.7px" height="260.8px" viewBox="0 0 39.7 260.8" style="enable-background:new 0 0 39.7 260.8;" xml:space="preserve">
<style type="text/css">
	#recentwork_text .st0{fill:#5F6468;}
</style>
<g>
	<path class="st0" d="M4.5,259.3v-11.4c0-2.1,0.3-3.8,0.8-5.1c0.6-1.3,1.3-2.4,2.1-3.2c0.9-0.8,1.8-1.3,2.9-1.6
		c1.1-0.3,2.1-0.5,3.1-0.5c1,0,2,0.2,3,0.5c1,0.4,1.8,0.9,2.6,1.6c0.8,0.7,1.4,1.5,2,2.5c0.5,1,0.9,2.1,1,3.3l14.7-9.2v5.5L22.6,250
		v4.9h14.2v4.4H4.5z M18.7,254.9v-5.8c0-0.9-0.1-1.7-0.2-2.5c-0.1-0.8-0.4-1.6-0.8-2.2s-0.9-1.2-1.6-1.6c-0.7-0.4-1.6-0.6-2.7-0.6
		s-2,0.2-2.7,0.6c-0.7,0.4-1.2,0.9-1.6,1.6s-0.6,1.4-0.8,2.2c-0.1,0.8-0.2,1.7-0.2,2.5v5.8H18.7z"/>
	<path class="st0" d="M27.5,228.9c0.9,0,1.8-0.2,2.6-0.6c0.8-0.4,1.4-1,2-1.6c0.5-0.7,1-1.4,1.3-2.3c0.3-0.9,0.5-1.8,0.5-2.7
		c0-1.3-0.3-2.4-0.9-3.3c-0.6-0.9-1.4-1.8-2.4-2.6l2.4-3.1c3,2.3,4.4,5.5,4.4,9.6c0,1.7-0.3,3.2-0.9,4.6c-0.6,1.4-1.4,2.6-2.4,3.5
		c-1,1-2.2,1.7-3.6,2.2c-1.4,0.5-2.9,0.8-4.5,0.8c-1.6,0-3.1-0.3-4.5-0.8c-1.4-0.6-2.6-1.3-3.6-2.3c-1-1-1.8-2.2-2.4-3.5
		c-0.6-1.4-0.9-2.9-0.9-4.5c0-1.9,0.3-3.5,1-4.9c0.7-1.3,1.5-2.4,2.6-3.3c1.1-0.9,2.3-1.5,3.7-1.8c1.4-0.4,2.7-0.6,4.1-0.6h1.5
		V228.9z M24.2,215.9c-0.9,0-1.8,0.2-2.5,0.4c-0.8,0.3-1.4,0.6-2,1.2c-0.6,0.5-1,1.2-1.3,1.9c-0.3,0.8-0.5,1.7-0.5,2.7
		c0,1,0.2,1.9,0.6,2.8c0.4,0.8,0.9,1.5,1.5,2.1c0.6,0.6,1.3,1,2,1.3c0.7,0.3,1.5,0.5,2.2,0.5V215.9z"/>
	<path class="st0" d="M20.9,190.7c-0.8,0.8-1.4,1.6-1.8,2.4c-0.4,0.8-0.6,1.8-0.6,3c0,1.1,0.2,2.1,0.6,2.9c0.4,0.8,1,1.5,1.7,2.1
		c0.7,0.6,1.5,1,2.5,1.3c0.9,0.3,1.9,0.4,2.9,0.4s2-0.2,2.9-0.5c0.9-0.3,1.7-0.8,2.4-1.4c0.7-0.6,1.2-1.3,1.6-2.2
		c0.4-0.9,0.6-1.8,0.6-2.9c0-1.2-0.2-2.1-0.6-3c-0.4-0.8-1-1.6-1.8-2.3l2.9-2.9c1.2,1.1,2,2.3,2.6,3.7c0.5,1.4,0.8,2.9,0.8,4.5
		c0,1.7-0.3,3.2-0.8,4.6c-0.5,1.4-1.3,2.6-2.3,3.6c-1,1-2.2,1.8-3.6,2.3c-1.4,0.5-2.9,0.8-4.6,0.8c-1.7,0-3.2-0.3-4.6-0.8
		c-1.4-0.5-2.6-1.3-3.6-2.3c-1-1-1.8-2.2-2.4-3.6c-0.6-1.4-0.8-2.9-0.8-4.6c0-1.6,0.3-3.1,0.8-4.5c0.6-1.4,1.4-2.7,2.6-3.8
		L20.9,190.7z"/>
	<path class="st0" d="M27.5,180.6c0.9,0,1.8-0.2,2.6-0.6c0.8-0.4,1.4-1,2-1.6c0.5-0.7,1-1.4,1.3-2.3c0.3-0.9,0.5-1.8,0.5-2.7
		c0-1.3-0.3-2.4-0.9-3.3c-0.6-0.9-1.4-1.8-2.4-2.6l2.4-3.1c3,2.3,4.4,5.5,4.4,9.6c0,1.7-0.3,3.2-0.9,4.6c-0.6,1.4-1.4,2.6-2.4,3.5
		c-1,1-2.2,1.7-3.6,2.2c-1.4,0.5-2.9,0.8-4.5,0.8c-1.6,0-3.1-0.3-4.5-0.8c-1.4-0.6-2.6-1.3-3.6-2.3c-1-1-1.8-2.2-2.4-3.5
		c-0.6-1.4-0.9-2.9-0.9-4.5c0-1.9,0.3-3.5,1-4.9c0.7-1.3,1.5-2.4,2.6-3.3c1.1-0.9,2.3-1.5,3.7-1.8c1.4-0.4,2.7-0.6,4.1-0.6h1.5
		V180.6z M24.2,167.6c-0.9,0-1.8,0.2-2.5,0.4c-0.8,0.3-1.4,0.6-2,1.2c-0.6,0.5-1,1.2-1.3,1.9c-0.3,0.8-0.5,1.7-0.5,2.7
		c0,1,0.2,1.9,0.6,2.8c0.4,0.8,0.9,1.5,1.5,2.1c0.6,0.6,1.3,1,2,1.3c0.7,0.3,1.5,0.5,2.2,0.5V167.6z"/>
	<path class="st0" d="M15.2,157.9v-4.1h3.3v-0.1c-1.2-0.5-2.1-1.4-2.8-2.7c-0.7-1.3-1.1-2.8-1.1-4.4c0-1,0.2-2,0.5-3
		c0.3-1,0.8-1.8,1.5-2.5c0.7-0.7,1.5-1.3,2.6-1.7c1-0.4,2.3-0.6,3.7-0.6h13.9v4.1H24c-1,0-1.9,0.1-2.6,0.4c-0.7,0.3-1.3,0.6-1.7,1.1
		c-0.4,0.5-0.8,1-1,1.6c-0.2,0.6-0.3,1.2-0.3,1.8c0,0.9,0.1,1.6,0.4,2.4s0.7,1.4,1.3,1.9c0.6,0.5,1.3,1,2.3,1.3
		c0.9,0.3,2,0.5,3.2,0.5h11.1v4.1H15.2z"/>
	<path class="st0" d="M18.7,120.4v5.9h9.8c0.6,0,1.2,0,1.8,0c0.6,0,1.1-0.1,1.6-0.3c0.5-0.2,0.9-0.5,1.1-0.9c0.3-0.4,0.4-1,0.4-1.8
		c0-0.5,0-1-0.1-1.5c-0.1-0.5-0.3-1-0.5-1.4h3.7c0.3,0.5,0.5,1.1,0.6,1.9c0.1,0.8,0.2,1.4,0.2,1.8c0,1.6-0.2,2.8-0.7,3.7
		c-0.4,0.9-1,1.5-1.7,1.9c-0.7,0.4-1.5,0.7-2.4,0.7c-0.9,0.1-1.7,0.1-2.6,0.1H18.7v4.7h-3.6v-4.7H9.1v-4.1h6.1v-5.9H18.7z"/>
	<path class="st0" d="M15.2,104.1v-4.6l16.2-4.9v-0.1l-16.2-5.2V85l16.2-5.5v-0.1l-16.2-4.6v-4.4l21.6,7v4.2l-16.2,5.7v0.1l16.2,5.2
		V97L15.2,104.1z"/>
	<path class="st0" d="M26,67.5c-1.6,0-3.1-0.3-4.4-0.9C20.2,66,19,65.2,18,64.1c-1-1-1.8-2.3-2.4-3.7c-0.6-1.4-0.9-2.9-0.9-4.5
		c0-1.6,0.3-3.1,0.9-4.5c0.6-1.4,1.4-2.6,2.4-3.7c1-1,2.2-1.8,3.6-2.4c1.4-0.6,2.8-0.9,4.4-0.9c1.6,0,3.1,0.3,4.5,0.9
		c1.4,0.6,2.6,1.4,3.6,2.4c1,1,1.8,2.3,2.4,3.7c0.6,1.4,0.9,2.9,0.9,4.5c0,1.6-0.3,3.1-0.9,4.5c-0.6,1.4-1.4,2.6-2.4,3.7
		c-1,1-2.2,1.8-3.6,2.4C29.1,67.2,27.6,67.5,26,67.5z M26,63.1c1.1,0,2.1-0.2,3-0.5c0.9-0.3,1.7-0.8,2.4-1.4
		c0.7-0.6,1.2-1.4,1.6-2.2c0.4-0.9,0.6-1.9,0.6-3c0-1.1-0.2-2.1-0.6-3c-0.4-0.9-0.9-1.6-1.6-2.2c-0.7-0.6-1.4-1.1-2.4-1.4
		c-0.9-0.3-1.9-0.5-3-0.5s-2.1,0.2-3,0.5c-0.9,0.3-1.7,0.8-2.4,1.4c-0.7,0.6-1.2,1.4-1.6,2.2c-0.4,0.9-0.6,1.9-0.6,3
		c0,1.1,0.2,2.1,0.6,3c0.4,0.9,0.9,1.6,1.6,2.2c0.7,0.6,1.4,1.1,2.4,1.4C23.9,62.9,24.9,63.1,26,63.1z"/>
	<path class="st0" d="M15.2,38.8v-4.1h3.3v-0.1c-0.6-0.3-1.1-0.6-1.6-1.1c-0.5-0.5-0.9-1-1.2-1.5c-0.3-0.6-0.6-1.2-0.8-1.8
		c-0.2-0.7-0.3-1.3-0.3-2c0-0.7,0.1-1.3,0.3-1.8l4.4,0.2c-0.1,0.3-0.2,0.7-0.2,1c-0.1,0.3-0.1,0.7-0.1,1c0,2,0.6,3.5,1.7,4.6
		c1.1,1.1,2.9,1.6,5.2,1.6h10.9v4.1H15.2z"/>
	<path class="st0" d="M2.3,21.5v-4.1h22.3l-9.4-9.3V2.4L25,12.5l11.8-11v5.8l-11.2,10h11.2v4.1H2.3z"/>
</g>
</svg>
